<mxfile host="app.diagrams.net" modified="2024-01-20T04:24:41.456Z" agent="Mozilla/5.0 (Windows NT 10.0; Win64; x64) AppleWebKit/537.36 (KHTML, like Gecko) Chrome/120.0.0.0 Safari/537.36 Edg/120.0.0.0" etag="aZKnfv3dUsRakh2xFZrF" version="22.1.21" type="google">
  <diagram name="Page-1" id="n4tQ5FMKA4n102BOKxa8">
    <mxGraphModel dx="4190" dy="1783" grid="1" gridSize="10" guides="1" tooltips="1" connect="1" arrows="1" fold="1" page="1" pageScale="1" pageWidth="850" pageHeight="1100" math="0" shadow="0">
      <root>
        <mxCell id="0" />
        <mxCell id="1" parent="0" />
        <mxCell id="4q0Dz2PpcYZMVycwDo13-232" value="" style="rounded=0;whiteSpace=wrap;html=1;fillColor=none;" vertex="1" parent="1">
          <mxGeometry x="-840" y="2790" width="1670" height="1100" as="geometry" />
        </mxCell>
        <mxCell id="4q0Dz2PpcYZMVycwDo13-226" value="" style="rounded=0;whiteSpace=wrap;html=1;fillColor=none;fontSize=26;" vertex="1" parent="1">
          <mxGeometry x="-337" y="2860" width="1147" height="1010" as="geometry" />
        </mxCell>
        <mxCell id="4q0Dz2PpcYZMVycwDo13-206" value="" style="rounded=0;whiteSpace=wrap;html=1;fillColor=none;fontSize=26;" vertex="1" parent="1">
          <mxGeometry x="-805" y="2860" width="315" height="240" as="geometry" />
        </mxCell>
        <mxCell id="4q0Dz2PpcYZMVycwDo13-207" value="" style="rounded=0;whiteSpace=wrap;html=1;fillColor=none;fontSize=26;" vertex="1" parent="1">
          <mxGeometry x="-805" y="3110" width="315" height="240" as="geometry" />
        </mxCell>
        <mxCell id="4q0Dz2PpcYZMVycwDo13-208" value="" style="rounded=0;whiteSpace=wrap;html=1;fillColor=none;fontSize=26;" vertex="1" parent="1">
          <mxGeometry x="-797.5" y="3380" width="315" height="240" as="geometry" />
        </mxCell>
        <mxCell id="4q0Dz2PpcYZMVycwDo13-209" value="" style="rounded=0;whiteSpace=wrap;html=1;fillColor=none;fontSize=26;" vertex="1" parent="1">
          <mxGeometry x="-795" y="3650" width="315" height="240" as="geometry" />
        </mxCell>
        <mxCell id="4q0Dz2PpcYZMVycwDo13-50" value="" style="rounded=0;whiteSpace=wrap;html=1;fillColor=none;fontSize=20;" vertex="1" parent="1">
          <mxGeometry x="-186.5" y="910" width="227.5" height="150" as="geometry" />
        </mxCell>
        <mxCell id="4q0Dz2PpcYZMVycwDo13-145" value="" style="rounded=0;whiteSpace=wrap;html=1;fillColor=none;fontSize=20;" vertex="1" parent="1">
          <mxGeometry x="-835.25" y="2150" width="920" height="560" as="geometry" />
        </mxCell>
        <mxCell id="4q0Dz2PpcYZMVycwDo13-118" value="" style="rounded=0;whiteSpace=wrap;html=1;fillColor=none;fontSize=20;" vertex="1" parent="1">
          <mxGeometry x="-835.25" y="1540" width="1040" height="550" as="geometry" />
        </mxCell>
        <mxCell id="4q0Dz2PpcYZMVycwDo13-93" value="" style="rounded=0;whiteSpace=wrap;html=1;fillColor=none;fontSize=20;" vertex="1" parent="1">
          <mxGeometry x="-835.25" y="640" width="1570" height="820" as="geometry" />
        </mxCell>
        <mxCell id="4q0Dz2PpcYZMVycwDo13-30" value="" style="verticalLabelPosition=bottom;verticalAlign=top;html=1;shape=mxgraph.basic.rect;fillColor2=none;strokeWidth=1;size=20;indent=5;fillColor=none;fontSize=20;" vertex="1" parent="1">
          <mxGeometry x="-820" y="10" width="1015" height="510" as="geometry" />
        </mxCell>
        <mxCell id="4q0Dz2PpcYZMVycwDo13-19" style="rounded=0;orthogonalLoop=1;jettySize=auto;html=1;endArrow=none;endFill=0;fontSize=20;" edge="1" parent="1" source="4q0Dz2PpcYZMVycwDo13-1">
          <mxGeometry relative="1" as="geometry">
            <mxPoint x="-587.5" y="253.33333333333337" as="targetPoint" />
          </mxGeometry>
        </mxCell>
        <mxCell id="4q0Dz2PpcYZMVycwDo13-1" value="server" style="fontColor=#0066CC;verticalAlign=top;verticalLabelPosition=bottom;labelPosition=center;align=center;html=1;outlineConnect=0;fillColor=#CCCCCC;strokeColor=#6881B3;gradientColor=none;gradientDirection=north;strokeWidth=2;shape=mxgraph.networks.server;fontSize=20;" vertex="1" parent="1">
          <mxGeometry x="-807.5" y="197.5" width="90" height="100" as="geometry" />
        </mxCell>
        <mxCell id="4q0Dz2PpcYZMVycwDo13-24" style="rounded=0;orthogonalLoop=1;jettySize=auto;html=1;endArrow=none;endFill=0;fontSize=20;" edge="1" parent="1" source="4q0Dz2PpcYZMVycwDo13-4" target="4q0Dz2PpcYZMVycwDo13-14">
          <mxGeometry relative="1" as="geometry" />
        </mxCell>
        <mxCell id="4q0Dz2PpcYZMVycwDo13-25" style="rounded=0;orthogonalLoop=1;jettySize=auto;html=1;endArrow=none;endFill=0;fontSize=20;" edge="1" parent="1" source="4q0Dz2PpcYZMVycwDo13-4" target="4q0Dz2PpcYZMVycwDo13-15">
          <mxGeometry relative="1" as="geometry" />
        </mxCell>
        <mxCell id="4q0Dz2PpcYZMVycwDo13-26" style="rounded=0;orthogonalLoop=1;jettySize=auto;html=1;endArrow=none;endFill=0;fontSize=20;" edge="1" parent="1" source="4q0Dz2PpcYZMVycwDo13-4" target="4q0Dz2PpcYZMVycwDo13-147">
          <mxGeometry relative="1" as="geometry">
            <mxPoint x="67.15968586387453" y="401" as="targetPoint" />
          </mxGeometry>
        </mxCell>
        <mxCell id="4q0Dz2PpcYZMVycwDo13-4" value="wifi" style="fontColor=#0066CC;verticalAlign=top;verticalLabelPosition=bottom;labelPosition=center;align=center;html=1;outlineConnect=0;fillColor=#CCCCCC;strokeColor=#6881B3;gradientColor=none;gradientDirection=north;strokeWidth=2;shape=mxgraph.networks.wireless_modem;fontSize=20;" vertex="1" parent="1">
          <mxGeometry x="-97.5" y="212.5" width="100" height="85" as="geometry" />
        </mxCell>
        <mxCell id="4q0Dz2PpcYZMVycwDo13-17" style="edgeStyle=orthogonalEdgeStyle;rounded=0;orthogonalLoop=1;jettySize=auto;html=1;fontSize=20;" edge="1" parent="1" source="4q0Dz2PpcYZMVycwDo13-5" target="4q0Dz2PpcYZMVycwDo13-13">
          <mxGeometry relative="1" as="geometry" />
        </mxCell>
        <mxCell id="4q0Dz2PpcYZMVycwDo13-18" style="rounded=0;orthogonalLoop=1;jettySize=auto;html=1;endArrow=none;endFill=0;fontSize=20;" edge="1" parent="1" source="4q0Dz2PpcYZMVycwDo13-5">
          <mxGeometry relative="1" as="geometry">
            <mxPoint x="-519.2567567567568" y="240" as="targetPoint" />
          </mxGeometry>
        </mxCell>
        <mxCell id="4q0Dz2PpcYZMVycwDo13-23" style="rounded=0;orthogonalLoop=1;jettySize=auto;html=1;endArrow=none;endFill=0;fontSize=20;" edge="1" parent="1" source="4q0Dz2PpcYZMVycwDo13-5" target="4q0Dz2PpcYZMVycwDo13-4">
          <mxGeometry relative="1" as="geometry" />
        </mxCell>
        <mxCell id="4q0Dz2PpcYZMVycwDo13-5" value="" style="fontColor=#0066CC;verticalAlign=top;verticalLabelPosition=bottom;labelPosition=center;align=center;html=1;outlineConnect=0;fillColor=#CCCCCC;strokeColor=#6881B3;gradientColor=none;gradientDirection=north;strokeWidth=2;shape=mxgraph.networks.firewall;fontSize=20;" vertex="1" parent="1">
          <mxGeometry x="-362.5" y="20" width="100" height="100" as="geometry" />
        </mxCell>
        <mxCell id="4q0Dz2PpcYZMVycwDo13-6" value="pc" style="fontColor=#0066CC;verticalAlign=top;verticalLabelPosition=bottom;labelPosition=center;align=center;html=1;outlineConnect=0;fillColor=#CCCCCC;strokeColor=#6881B3;gradientColor=none;gradientDirection=north;strokeWidth=2;shape=mxgraph.networks.pc;fontSize=20;" vertex="1" parent="1">
          <mxGeometry x="-607.5" y="410" width="100" height="70" as="geometry" />
        </mxCell>
        <mxCell id="4q0Dz2PpcYZMVycwDo13-20" style="rounded=0;orthogonalLoop=1;jettySize=auto;html=1;endArrow=none;endFill=0;fontSize=20;" edge="1" parent="1" target="4q0Dz2PpcYZMVycwDo13-10">
          <mxGeometry relative="1" as="geometry">
            <mxPoint x="-550.9210526315788" y="270" as="sourcePoint" />
          </mxGeometry>
        </mxCell>
        <mxCell id="4q0Dz2PpcYZMVycwDo13-21" style="rounded=0;orthogonalLoop=1;jettySize=auto;html=1;endArrow=none;endFill=0;fontSize=20;" edge="1" parent="1" target="4q0Dz2PpcYZMVycwDo13-6">
          <mxGeometry relative="1" as="geometry">
            <mxPoint x="-539.0789473684212" y="270" as="sourcePoint" />
          </mxGeometry>
        </mxCell>
        <mxCell id="4q0Dz2PpcYZMVycwDo13-22" style="rounded=0;orthogonalLoop=1;jettySize=auto;html=1;endArrow=none;endFill=0;fontSize=20;" edge="1" parent="1" target="4q0Dz2PpcYZMVycwDo13-9">
          <mxGeometry relative="1" as="geometry">
            <mxPoint x="-528.0263157894738" y="270" as="sourcePoint" />
          </mxGeometry>
        </mxCell>
        <mxCell id="4q0Dz2PpcYZMVycwDo13-9" value="pc" style="fontColor=#0066CC;verticalAlign=top;verticalLabelPosition=bottom;labelPosition=center;align=center;html=1;outlineConnect=0;fillColor=#CCCCCC;strokeColor=#6881B3;gradientColor=none;gradientDirection=north;strokeWidth=2;shape=mxgraph.networks.pc;fontSize=20;" vertex="1" parent="1">
          <mxGeometry x="-467.5" y="410" width="100" height="70" as="geometry" />
        </mxCell>
        <mxCell id="4q0Dz2PpcYZMVycwDo13-10" value="pc" style="fontColor=#0066CC;verticalAlign=top;verticalLabelPosition=bottom;labelPosition=center;align=center;html=1;outlineConnect=0;fillColor=#CCCCCC;strokeColor=#6881B3;gradientColor=none;gradientDirection=north;strokeWidth=2;shape=mxgraph.networks.pc;fontSize=20;" vertex="1" parent="1">
          <mxGeometry x="-757.5" y="410" width="100" height="70" as="geometry" />
        </mxCell>
        <mxCell id="4q0Dz2PpcYZMVycwDo13-28" style="rounded=0;orthogonalLoop=1;jettySize=auto;html=1;endArrow=none;endFill=0;fontSize=20;" edge="1" parent="1" source="4q0Dz2PpcYZMVycwDo13-11" target="4q0Dz2PpcYZMVycwDo13-5">
          <mxGeometry relative="1" as="geometry" />
        </mxCell>
        <mxCell id="4q0Dz2PpcYZMVycwDo13-11" value="modem" style="fontColor=#0066CC;verticalAlign=top;verticalLabelPosition=bottom;labelPosition=center;align=center;html=1;outlineConnect=0;fillColor=#CCCCCC;strokeColor=#6881B3;gradientColor=none;gradientDirection=north;strokeWidth=2;shape=mxgraph.networks.modem;fontSize=20;" vertex="1" parent="1">
          <mxGeometry x="-617.5" y="60" width="100" height="30" as="geometry" />
        </mxCell>
        <mxCell id="4q0Dz2PpcYZMVycwDo13-27" style="rounded=0;orthogonalLoop=1;jettySize=auto;html=1;endArrow=none;endFill=0;fontSize=20;" edge="1" parent="1" source="4q0Dz2PpcYZMVycwDo13-12" target="4q0Dz2PpcYZMVycwDo13-11">
          <mxGeometry relative="1" as="geometry" />
        </mxCell>
        <mxCell id="4q0Dz2PpcYZMVycwDo13-12" value="internet" style="html=1;outlineConnect=0;fillColor=#CCCCCC;strokeColor=#6881B3;gradientColor=none;gradientDirection=north;strokeWidth=2;shape=mxgraph.networks.cloud;fontColor=#ffffff;fontSize=20;" vertex="1" parent="1">
          <mxGeometry x="-807.5" y="50" width="90" height="50" as="geometry" />
        </mxCell>
        <mxCell id="4q0Dz2PpcYZMVycwDo13-13" value="Workstation" style="fontColor=#0066CC;verticalAlign=top;verticalLabelPosition=bottom;labelPosition=center;align=center;html=1;outlineConnect=0;fillColor=#CCCCCC;strokeColor=#6881B3;gradientColor=none;gradientDirection=north;strokeWidth=2;shape=mxgraph.networks.pc;fontSize=20;" vertex="1" parent="1">
          <mxGeometry x="-362.5" y="210" width="100" height="70" as="geometry" />
        </mxCell>
        <mxCell id="4q0Dz2PpcYZMVycwDo13-14" value="phone" style="fontColor=#0066CC;verticalAlign=top;verticalLabelPosition=bottom;labelPosition=center;align=center;html=1;outlineConnect=0;fillColor=#CCCCCC;strokeColor=#6881B3;gradientColor=none;gradientDirection=north;strokeWidth=2;shape=mxgraph.networks.mobile;fontSize=20;" vertex="1" parent="1">
          <mxGeometry x="-227.5" y="395" width="50" height="100" as="geometry" />
        </mxCell>
        <mxCell id="4q0Dz2PpcYZMVycwDo13-15" value="laptop" style="fontColor=#0066CC;verticalAlign=top;verticalLabelPosition=bottom;labelPosition=center;align=center;html=1;outlineConnect=0;fillColor=#CCCCCC;strokeColor=#6881B3;gradientColor=none;gradientDirection=north;strokeWidth=2;shape=mxgraph.networks.laptop;fontSize=20;" vertex="1" parent="1">
          <mxGeometry x="-107.5" y="418" width="100" height="55" as="geometry" />
        </mxCell>
        <mxCell id="4q0Dz2PpcYZMVycwDo13-31" value="B1" style="whiteSpace=wrap;html=1;fontSize=20;" vertex="1" parent="1">
          <mxGeometry x="135" y="10" width="60" height="40" as="geometry" />
        </mxCell>
        <mxCell id="4q0Dz2PpcYZMVycwDo13-52" style="rounded=0;orthogonalLoop=1;jettySize=auto;html=1;endArrow=none;endFill=0;fontSize=20;" edge="1" parent="1" source="4q0Dz2PpcYZMVycwDo13-32" target="4q0Dz2PpcYZMVycwDo13-49">
          <mxGeometry relative="1" as="geometry" />
        </mxCell>
        <mxCell id="4q0Dz2PpcYZMVycwDo13-54" style="rounded=0;orthogonalLoop=1;jettySize=auto;html=1;endArrow=none;endFill=0;fontSize=20;" edge="1" parent="1" source="4q0Dz2PpcYZMVycwDo13-32" target="4q0Dz2PpcYZMVycwDo13-50">
          <mxGeometry relative="1" as="geometry" />
        </mxCell>
        <mxCell id="4q0Dz2PpcYZMVycwDo13-55" style="rounded=0;orthogonalLoop=1;jettySize=auto;html=1;endArrow=none;endFill=0;fontSize=20;" edge="1" parent="1" source="4q0Dz2PpcYZMVycwDo13-32" target="4q0Dz2PpcYZMVycwDo13-48">
          <mxGeometry relative="1" as="geometry" />
        </mxCell>
        <mxCell id="4q0Dz2PpcYZMVycwDo13-32" value="internet" style="html=1;outlineConnect=0;fillColor=#CCCCCC;strokeColor=#6881B3;gradientColor=none;gradientDirection=north;strokeWidth=2;shape=mxgraph.networks.cloud;fontColor=#ffffff;fontSize=20;" vertex="1" parent="1">
          <mxGeometry x="-154.5" y="730" width="90" height="70" as="geometry" />
        </mxCell>
        <mxCell id="4q0Dz2PpcYZMVycwDo13-34" value="switch" style="fontColor=#0066CC;verticalAlign=top;verticalLabelPosition=bottom;labelPosition=center;align=center;html=1;outlineConnect=0;fillColor=#CCCCCC;strokeColor=#6881B3;gradientColor=none;gradientDirection=north;strokeWidth=2;shape=mxgraph.networks.switch;fontSize=20;" vertex="1" parent="1">
          <mxGeometry x="-590" y="240" width="100" height="30" as="geometry" />
        </mxCell>
        <mxCell id="4q0Dz2PpcYZMVycwDo13-35" value="" style="fontColor=#0066CC;verticalAlign=top;verticalLabelPosition=bottom;labelPosition=center;align=center;html=1;outlineConnect=0;fillColor=#CCCCCC;strokeColor=#6881B3;gradientColor=none;gradientDirection=north;strokeWidth=2;shape=mxgraph.networks.firewall;fontSize=20;" vertex="1" parent="1">
          <mxGeometry x="-390.25" y="690" width="62.5" height="50" as="geometry" />
        </mxCell>
        <mxCell id="4q0Dz2PpcYZMVycwDo13-36" value="" style="fontColor=#0066CC;verticalAlign=top;verticalLabelPosition=bottom;labelPosition=center;align=center;html=1;outlineConnect=0;fillColor=#CCCCCC;strokeColor=#6881B3;gradientColor=none;gradientDirection=north;strokeWidth=2;shape=mxgraph.networks.router;fontSize=20;" vertex="1" parent="1">
          <mxGeometry x="-409" y="750" width="100" height="30" as="geometry" />
        </mxCell>
        <mxCell id="4q0Dz2PpcYZMVycwDo13-37" value="" style="fontColor=#0066CC;verticalAlign=top;verticalLabelPosition=bottom;labelPosition=center;align=center;html=1;outlineConnect=0;fillColor=#CCCCCC;strokeColor=#6881B3;gradientColor=none;gradientDirection=north;strokeWidth=2;shape=mxgraph.networks.firewall;fontSize=20;" vertex="1" parent="1">
          <mxGeometry x="144.75" y="700" width="62.5" height="50" as="geometry" />
        </mxCell>
        <mxCell id="4q0Dz2PpcYZMVycwDo13-38" value="" style="fontColor=#0066CC;verticalAlign=top;verticalLabelPosition=bottom;labelPosition=center;align=center;html=1;outlineConnect=0;fillColor=#CCCCCC;strokeColor=#6881B3;gradientColor=none;gradientDirection=north;strokeWidth=2;shape=mxgraph.networks.router;fontSize=20;" vertex="1" parent="1">
          <mxGeometry x="126" y="760" width="100" height="30" as="geometry" />
        </mxCell>
        <mxCell id="4q0Dz2PpcYZMVycwDo13-39" value="" style="fontColor=#0066CC;verticalAlign=top;verticalLabelPosition=bottom;labelPosition=center;align=center;html=1;outlineConnect=0;fillColor=#CCCCCC;strokeColor=#6881B3;gradientColor=none;gradientDirection=north;strokeWidth=2;shape=mxgraph.networks.firewall;fontSize=20;" vertex="1" parent="1">
          <mxGeometry x="-178" y="940" width="62.5" height="50" as="geometry" />
        </mxCell>
        <mxCell id="4q0Dz2PpcYZMVycwDo13-41" value="remote server" style="fontColor=#0066CC;verticalAlign=top;verticalLabelPosition=bottom;labelPosition=center;align=center;html=1;outlineConnect=0;fillColor=#CCCCCC;strokeColor=#6881B3;gradientColor=none;gradientDirection=north;strokeWidth=2;shape=mxgraph.networks.server;fontSize=20;" vertex="1" parent="1">
          <mxGeometry x="-85.25" y="920" width="90" height="100" as="geometry" />
        </mxCell>
        <mxCell id="4q0Dz2PpcYZMVycwDo13-42" value="NAS" style="fontColor=#0066CC;verticalAlign=top;verticalLabelPosition=bottom;labelPosition=center;align=center;html=1;outlineConnect=0;fillColor=#CCCCCC;strokeColor=#6881B3;gradientColor=none;gradientDirection=north;strokeWidth=2;shape=mxgraph.networks.nas_filer;fontSize=20;" vertex="1" parent="1">
          <mxGeometry x="405" y="820" width="100" height="35" as="geometry" />
        </mxCell>
        <mxCell id="4q0Dz2PpcYZMVycwDo13-88" style="rounded=0;orthogonalLoop=1;jettySize=auto;html=1;endArrow=none;endFill=0;fontSize=20;" edge="1" parent="1" source="4q0Dz2PpcYZMVycwDo13-43" target="4q0Dz2PpcYZMVycwDo13-85">
          <mxGeometry relative="1" as="geometry" />
        </mxCell>
        <mxCell id="4q0Dz2PpcYZMVycwDo13-90" style="rounded=0;orthogonalLoop=1;jettySize=auto;html=1;endArrow=none;endFill=0;fontSize=20;" edge="1" parent="1" source="4q0Dz2PpcYZMVycwDo13-43" target="4q0Dz2PpcYZMVycwDo13-89">
          <mxGeometry relative="1" as="geometry" />
        </mxCell>
        <mxCell id="4q0Dz2PpcYZMVycwDo13-43" value="switch" style="fontColor=#0066CC;verticalAlign=top;verticalLabelPosition=bottom;labelPosition=center;align=center;html=1;outlineConnect=0;fillColor=#CCCCCC;strokeColor=#6881B3;gradientColor=none;gradientDirection=north;strokeWidth=2;shape=mxgraph.networks.switch;fontSize=20;" vertex="1" parent="1">
          <mxGeometry x="-649" y="740" width="100" height="30" as="geometry" />
        </mxCell>
        <mxCell id="4q0Dz2PpcYZMVycwDo13-72" style="rounded=0;orthogonalLoop=1;jettySize=auto;html=1;endArrow=none;endFill=0;fontSize=20;" edge="1" parent="1" source="4q0Dz2PpcYZMVycwDo13-44" target="4q0Dz2PpcYZMVycwDo13-42">
          <mxGeometry relative="1" as="geometry" />
        </mxCell>
        <mxCell id="4q0Dz2PpcYZMVycwDo13-73" style="rounded=0;orthogonalLoop=1;jettySize=auto;html=1;endArrow=none;endFill=0;fontSize=20;" edge="1" parent="1" source="4q0Dz2PpcYZMVycwDo13-44" target="4q0Dz2PpcYZMVycwDo13-45">
          <mxGeometry relative="1" as="geometry" />
        </mxCell>
        <mxCell id="4q0Dz2PpcYZMVycwDo13-74" style="rounded=0;orthogonalLoop=1;jettySize=auto;html=1;endArrow=none;endFill=0;fontSize=20;" edge="1" parent="1" source="4q0Dz2PpcYZMVycwDo13-44" target="4q0Dz2PpcYZMVycwDo13-67">
          <mxGeometry relative="1" as="geometry" />
        </mxCell>
        <mxCell id="4q0Dz2PpcYZMVycwDo13-44" value="" style="fontColor=#0066CC;verticalAlign=top;verticalLabelPosition=bottom;labelPosition=center;align=center;html=1;outlineConnect=0;fillColor=#CCCCCC;strokeColor=#6881B3;gradientColor=none;gradientDirection=north;strokeWidth=2;shape=mxgraph.networks.router;fontSize=20;" vertex="1" parent="1">
          <mxGeometry x="411" y="970" width="100" height="30" as="geometry" />
        </mxCell>
        <mxCell id="4q0Dz2PpcYZMVycwDo13-63" style="rounded=0;orthogonalLoop=1;jettySize=auto;html=1;fontSize=20;" edge="1" parent="1" source="4q0Dz2PpcYZMVycwDo13-45" target="4q0Dz2PpcYZMVycwDo13-60">
          <mxGeometry relative="1" as="geometry" />
        </mxCell>
        <mxCell id="4q0Dz2PpcYZMVycwDo13-65" style="rounded=0;orthogonalLoop=1;jettySize=auto;html=1;fontSize=20;" edge="1" parent="1" source="4q0Dz2PpcYZMVycwDo13-45" target="4q0Dz2PpcYZMVycwDo13-61">
          <mxGeometry relative="1" as="geometry" />
        </mxCell>
        <mxCell id="4q0Dz2PpcYZMVycwDo13-66" style="rounded=0;orthogonalLoop=1;jettySize=auto;html=1;fontSize=20;" edge="1" parent="1" source="4q0Dz2PpcYZMVycwDo13-45" target="4q0Dz2PpcYZMVycwDo13-62">
          <mxGeometry relative="1" as="geometry" />
        </mxCell>
        <mxCell id="4q0Dz2PpcYZMVycwDo13-45" value="wirelass access point" style="fontColor=#0066CC;verticalAlign=top;verticalLabelPosition=bottom;labelPosition=center;align=center;html=1;outlineConnect=0;fillColor=#CCCCCC;strokeColor=#6881B3;gradientColor=none;gradientDirection=north;strokeWidth=2;shape=mxgraph.networks.wireless_modem;fontSize=20;" vertex="1" parent="1">
          <mxGeometry x="414.75" y="1040" width="100" height="85" as="geometry" />
        </mxCell>
        <mxCell id="4q0Dz2PpcYZMVycwDo13-57" style="rounded=0;orthogonalLoop=1;jettySize=auto;html=1;endArrow=none;endFill=0;fontSize=20;" edge="1" parent="1" source="4q0Dz2PpcYZMVycwDo13-46" target="4q0Dz2PpcYZMVycwDo13-44">
          <mxGeometry relative="1" as="geometry" />
        </mxCell>
        <mxCell id="4q0Dz2PpcYZMVycwDo13-46" value="remote server" style="fontColor=#0066CC;verticalAlign=top;verticalLabelPosition=bottom;labelPosition=center;align=center;html=1;outlineConnect=0;fillColor=#CCCCCC;strokeColor=#6881B3;gradientColor=none;gradientDirection=north;strokeWidth=2;shape=mxgraph.networks.server;fontSize=20;" vertex="1" parent="1">
          <mxGeometry x="207.25" y="935" width="90" height="100" as="geometry" />
        </mxCell>
        <mxCell id="4q0Dz2PpcYZMVycwDo13-56" style="rounded=0;orthogonalLoop=1;jettySize=auto;html=1;endArrow=none;endFill=0;fontSize=20;" edge="1" parent="1" source="4q0Dz2PpcYZMVycwDo13-48" target="4q0Dz2PpcYZMVycwDo13-43">
          <mxGeometry relative="1" as="geometry" />
        </mxCell>
        <mxCell id="4q0Dz2PpcYZMVycwDo13-48" value="" style="rounded=0;whiteSpace=wrap;html=1;fillColor=none;fontSize=20;" vertex="1" parent="1">
          <mxGeometry x="-426.5" y="680" width="135" height="120" as="geometry" />
        </mxCell>
        <mxCell id="4q0Dz2PpcYZMVycwDo13-53" style="rounded=0;orthogonalLoop=1;jettySize=auto;html=1;endArrow=none;endFill=0;fontSize=20;" edge="1" parent="1" source="4q0Dz2PpcYZMVycwDo13-49" target="4q0Dz2PpcYZMVycwDo13-46">
          <mxGeometry relative="1" as="geometry" />
        </mxCell>
        <mxCell id="4q0Dz2PpcYZMVycwDo13-49" value="" style="rounded=0;whiteSpace=wrap;html=1;fillColor=none;fontSize=20;" vertex="1" parent="1">
          <mxGeometry x="101" y="690" width="140" height="110" as="geometry" />
        </mxCell>
        <mxCell id="4q0Dz2PpcYZMVycwDo13-82" style="rounded=0;orthogonalLoop=1;jettySize=auto;html=1;endArrow=none;endFill=0;fontSize=20;" edge="1" parent="1" source="4q0Dz2PpcYZMVycwDo13-50" target="4q0Dz2PpcYZMVycwDo13-51">
          <mxGeometry relative="1" as="geometry" />
        </mxCell>
        <mxCell id="4q0Dz2PpcYZMVycwDo13-78" style="rounded=0;orthogonalLoop=1;jettySize=auto;html=1;endArrow=none;endFill=0;fontSize=20;" edge="1" parent="1" source="4q0Dz2PpcYZMVycwDo13-51" target="4q0Dz2PpcYZMVycwDo13-75">
          <mxGeometry relative="1" as="geometry" />
        </mxCell>
        <mxCell id="4q0Dz2PpcYZMVycwDo13-79" style="rounded=0;orthogonalLoop=1;jettySize=auto;html=1;endArrow=none;endFill=0;fontSize=20;" edge="1" parent="1" source="4q0Dz2PpcYZMVycwDo13-51" target="4q0Dz2PpcYZMVycwDo13-76">
          <mxGeometry relative="1" as="geometry" />
        </mxCell>
        <mxCell id="4q0Dz2PpcYZMVycwDo13-80" style="rounded=0;orthogonalLoop=1;jettySize=auto;html=1;endArrow=none;endFill=0;fontSize=20;" edge="1" parent="1" source="4q0Dz2PpcYZMVycwDo13-51" target="4q0Dz2PpcYZMVycwDo13-77">
          <mxGeometry relative="1" as="geometry" />
        </mxCell>
        <mxCell id="4q0Dz2PpcYZMVycwDo13-51" value="3g/4g" style="fontColor=#0066CC;verticalAlign=top;verticalLabelPosition=bottom;labelPosition=center;align=center;html=1;outlineConnect=0;fillColor=#CCCCCC;strokeColor=#6881B3;gradientColor=none;gradientDirection=north;strokeWidth=2;shape=mxgraph.networks.wireless_modem;fontSize=20;" vertex="1" parent="1">
          <mxGeometry x="-133.25" y="1130" width="100" height="85" as="geometry" />
        </mxCell>
        <mxCell id="4q0Dz2PpcYZMVycwDo13-60" value="" style="fontColor=#0066CC;verticalAlign=top;verticalLabelPosition=bottom;labelPosition=center;align=center;html=1;outlineConnect=0;fillColor=#CCCCCC;strokeColor=#6881B3;gradientColor=none;gradientDirection=north;strokeWidth=2;shape=mxgraph.networks.mobile;fontSize=20;" vertex="1" parent="1">
          <mxGeometry x="274.75" y="1250" width="50" height="100" as="geometry" />
        </mxCell>
        <mxCell id="4q0Dz2PpcYZMVycwDo13-61" value="" style="fontColor=#0066CC;verticalAlign=top;verticalLabelPosition=bottom;labelPosition=center;align=center;html=1;outlineConnect=0;fillColor=#CCCCCC;strokeColor=#6881B3;gradientColor=none;gradientDirection=north;strokeWidth=2;shape=mxgraph.networks.mobile;fontSize=20;" vertex="1" parent="1">
          <mxGeometry x="428.75" y="1250" width="50" height="100" as="geometry" />
        </mxCell>
        <mxCell id="4q0Dz2PpcYZMVycwDo13-62" value="" style="fontColor=#0066CC;verticalAlign=top;verticalLabelPosition=bottom;labelPosition=center;align=center;html=1;outlineConnect=0;fillColor=#CCCCCC;strokeColor=#6881B3;gradientColor=none;gradientDirection=north;strokeWidth=2;shape=mxgraph.networks.mobile;fontSize=20;" vertex="1" parent="1">
          <mxGeometry x="578.75" y="1250" width="50" height="100" as="geometry" />
        </mxCell>
        <mxCell id="4q0Dz2PpcYZMVycwDo13-67" value="Lecture device" style="fontColor=#0066CC;verticalAlign=top;verticalLabelPosition=bottom;labelPosition=center;align=center;html=1;outlineConnect=0;fillColor=#CCCCCC;strokeColor=#6881B3;gradientColor=none;gradientDirection=north;strokeWidth=2;shape=mxgraph.networks.video_projector;fontSize=20;" vertex="1" parent="1">
          <mxGeometry x="584.75" y="965" width="100" height="35" as="geometry" />
        </mxCell>
        <mxCell id="4q0Dz2PpcYZMVycwDo13-75" value="" style="fontColor=#0066CC;verticalAlign=top;verticalLabelPosition=bottom;labelPosition=center;align=center;html=1;outlineConnect=0;fillColor=#CCCCCC;strokeColor=#6881B3;gradientColor=none;gradientDirection=north;strokeWidth=2;shape=mxgraph.networks.mobile;fontSize=20;" vertex="1" parent="1">
          <mxGeometry x="-265.25" y="1310" width="50" height="100" as="geometry" />
        </mxCell>
        <mxCell id="4q0Dz2PpcYZMVycwDo13-76" value="" style="fontColor=#0066CC;verticalAlign=top;verticalLabelPosition=bottom;labelPosition=center;align=center;html=1;outlineConnect=0;fillColor=#CCCCCC;strokeColor=#6881B3;gradientColor=none;gradientDirection=north;strokeWidth=2;shape=mxgraph.networks.mobile;fontSize=20;" vertex="1" parent="1">
          <mxGeometry x="-111.25" y="1310" width="50" height="100" as="geometry" />
        </mxCell>
        <mxCell id="4q0Dz2PpcYZMVycwDo13-77" value="" style="fontColor=#0066CC;verticalAlign=top;verticalLabelPosition=bottom;labelPosition=center;align=center;html=1;outlineConnect=0;fillColor=#CCCCCC;strokeColor=#6881B3;gradientColor=none;gradientDirection=north;strokeWidth=2;shape=mxgraph.networks.mobile;fontSize=20;" vertex="1" parent="1">
          <mxGeometry x="38.75" y="1310" width="50" height="100" as="geometry" />
        </mxCell>
        <mxCell id="4q0Dz2PpcYZMVycwDo13-85" value="NAS" style="fontColor=#0066CC;verticalAlign=top;verticalLabelPosition=bottom;labelPosition=center;align=center;html=1;outlineConnect=0;fillColor=#CCCCCC;strokeColor=#6881B3;gradientColor=none;gradientDirection=north;strokeWidth=2;shape=mxgraph.networks.nas_filer;fontSize=20;" vertex="1" parent="1">
          <mxGeometry x="-816.5" y="737.5" width="100" height="35" as="geometry" />
        </mxCell>
        <mxCell id="4q0Dz2PpcYZMVycwDo13-89" value="orino server" style="fontColor=#0066CC;verticalAlign=top;verticalLabelPosition=bottom;labelPosition=center;align=center;html=1;outlineConnect=0;fillColor=#CCCCCC;strokeColor=#6881B3;gradientColor=none;gradientDirection=north;strokeWidth=2;shape=mxgraph.networks.server;fontSize=20;" vertex="1" parent="1">
          <mxGeometry x="-639" y="810" width="90" height="100" as="geometry" />
        </mxCell>
        <mxCell id="4q0Dz2PpcYZMVycwDo13-91" value="capture device" style="fontColor=#0066CC;verticalAlign=top;verticalLabelPosition=bottom;labelPosition=center;align=center;html=1;outlineConnect=0;fillColor=#CCCCCC;strokeColor=#6881B3;gradientColor=none;gradientDirection=north;strokeWidth=2;shape=mxgraph.networks.video_projector;fontSize=20;" vertex="1" parent="1">
          <mxGeometry x="-649" y="975" width="100" height="35" as="geometry" />
        </mxCell>
        <mxCell id="4q0Dz2PpcYZMVycwDo13-92" style="rounded=0;orthogonalLoop=1;jettySize=auto;html=1;entryX=0.5;entryY=0.15;entryDx=0;entryDy=0;entryPerimeter=0;endArrow=none;endFill=0;fontSize=20;" edge="1" parent="1" source="4q0Dz2PpcYZMVycwDo13-89" target="4q0Dz2PpcYZMVycwDo13-91">
          <mxGeometry relative="1" as="geometry" />
        </mxCell>
        <mxCell id="4q0Dz2PpcYZMVycwDo13-94" value="B2" style="rounded=0;whiteSpace=wrap;html=1;fontSize=20;" vertex="1" parent="1">
          <mxGeometry x="614.75" y="640" width="120" height="60" as="geometry" />
        </mxCell>
        <mxCell id="4q0Dz2PpcYZMVycwDo13-107" style="rounded=0;orthogonalLoop=1;jettySize=auto;html=1;endArrow=none;endFill=0;fontSize=20;" edge="1" parent="1" source="4q0Dz2PpcYZMVycwDo13-95" target="4q0Dz2PpcYZMVycwDo13-96">
          <mxGeometry relative="1" as="geometry" />
        </mxCell>
        <mxCell id="4q0Dz2PpcYZMVycwDo13-95" value="" style="html=1;outlineConnect=0;fillColor=#CCCCCC;strokeColor=#6881B3;gradientColor=none;gradientDirection=north;strokeWidth=2;shape=mxgraph.networks.cloud;fontColor=#ffffff;fontSize=20;" vertex="1" parent="1">
          <mxGeometry x="-785.25" y="1755" width="90" height="50" as="geometry" />
        </mxCell>
        <mxCell id="4q0Dz2PpcYZMVycwDo13-108" style="rounded=0;orthogonalLoop=1;jettySize=auto;html=1;endArrow=none;endFill=0;fontSize=20;" edge="1" parent="1" source="4q0Dz2PpcYZMVycwDo13-96" target="4q0Dz2PpcYZMVycwDo13-97">
          <mxGeometry relative="1" as="geometry" />
        </mxCell>
        <mxCell id="4q0Dz2PpcYZMVycwDo13-96" value="" style="fontColor=#0066CC;verticalAlign=top;verticalLabelPosition=bottom;labelPosition=center;align=center;html=1;outlineConnect=0;fillColor=#CCCCCC;strokeColor=#6881B3;gradientColor=none;gradientDirection=north;strokeWidth=2;shape=mxgraph.networks.firewall;fontSize=20;" vertex="1" parent="1">
          <mxGeometry x="-565.25" y="1730" width="100" height="100" as="geometry" />
        </mxCell>
        <mxCell id="4q0Dz2PpcYZMVycwDo13-109" style="rounded=0;orthogonalLoop=1;jettySize=auto;html=1;endArrow=none;endFill=0;fontSize=20;" edge="1" parent="1" source="4q0Dz2PpcYZMVycwDo13-97" target="4q0Dz2PpcYZMVycwDo13-103">
          <mxGeometry relative="1" as="geometry" />
        </mxCell>
        <mxCell id="4q0Dz2PpcYZMVycwDo13-110" style="rounded=0;orthogonalLoop=1;jettySize=auto;html=1;endArrow=none;endFill=0;fontSize=20;" edge="1" parent="1" source="4q0Dz2PpcYZMVycwDo13-97" target="4q0Dz2PpcYZMVycwDo13-99">
          <mxGeometry relative="1" as="geometry" />
        </mxCell>
        <mxCell id="4q0Dz2PpcYZMVycwDo13-111" style="rounded=0;orthogonalLoop=1;jettySize=auto;html=1;endArrow=none;endFill=0;fontSize=20;" edge="1" parent="1" source="4q0Dz2PpcYZMVycwDo13-97" target="4q0Dz2PpcYZMVycwDo13-98">
          <mxGeometry relative="1" as="geometry" />
        </mxCell>
        <mxCell id="4q0Dz2PpcYZMVycwDo13-112" style="rounded=0;orthogonalLoop=1;jettySize=auto;html=1;endArrow=none;endFill=0;fontSize=20;" edge="1" parent="1" source="4q0Dz2PpcYZMVycwDo13-97" target="4q0Dz2PpcYZMVycwDo13-100">
          <mxGeometry relative="1" as="geometry" />
        </mxCell>
        <mxCell id="4q0Dz2PpcYZMVycwDo13-113" style="rounded=0;orthogonalLoop=1;jettySize=auto;html=1;endArrow=none;endFill=0;fontSize=20;" edge="1" parent="1" source="4q0Dz2PpcYZMVycwDo13-97" target="4q0Dz2PpcYZMVycwDo13-101">
          <mxGeometry relative="1" as="geometry" />
        </mxCell>
        <mxCell id="4q0Dz2PpcYZMVycwDo13-97" value="router" style="fontColor=#0066CC;verticalAlign=top;verticalLabelPosition=bottom;labelPosition=center;align=center;html=1;outlineConnect=0;fillColor=#CCCCCC;strokeColor=#6881B3;gradientColor=none;gradientDirection=north;strokeWidth=2;shape=mxgraph.networks.router;fontSize=20;" vertex="1" parent="1">
          <mxGeometry x="-378.87" y="1765" width="100" height="30" as="geometry" />
        </mxCell>
        <mxCell id="4q0Dz2PpcYZMVycwDo13-98" value="mail server" style="fontColor=#0066CC;verticalAlign=top;verticalLabelPosition=bottom;labelPosition=center;align=center;html=1;outlineConnect=0;fillColor=#CCCCCC;strokeColor=#6881B3;gradientColor=none;gradientDirection=north;strokeWidth=2;shape=mxgraph.networks.server;fontSize=20;" vertex="1" parent="1">
          <mxGeometry x="-261.62" y="1560" width="90" height="100" as="geometry" />
        </mxCell>
        <mxCell id="4q0Dz2PpcYZMVycwDo13-99" value="honeyspot" style="fontColor=#0066CC;verticalAlign=top;verticalLabelPosition=bottom;labelPosition=center;align=center;html=1;outlineConnect=0;fillColor=#CCCCCC;strokeColor=#6881B3;gradientColor=none;gradientDirection=north;strokeWidth=2;shape=mxgraph.networks.server;fontSize=20;" vertex="1" parent="1">
          <mxGeometry x="-438.87" y="1560" width="90" height="100" as="geometry" />
        </mxCell>
        <mxCell id="4q0Dz2PpcYZMVycwDo13-100" value="FTP server" style="fontColor=#0066CC;verticalAlign=top;verticalLabelPosition=bottom;labelPosition=center;align=center;html=1;outlineConnect=0;fillColor=#CCCCCC;strokeColor=#6881B3;gradientColor=none;gradientDirection=north;strokeWidth=2;shape=mxgraph.networks.server;fontSize=20;" vertex="1" parent="1">
          <mxGeometry x="-438.87" y="1930" width="90" height="100" as="geometry" />
        </mxCell>
        <mxCell id="4q0Dz2PpcYZMVycwDo13-101" value="web server" style="fontColor=#0066CC;verticalAlign=top;verticalLabelPosition=bottom;labelPosition=center;align=center;html=1;outlineConnect=0;fillColor=#CCCCCC;strokeColor=#6881B3;gradientColor=none;gradientDirection=north;strokeWidth=2;shape=mxgraph.networks.server;fontSize=20;" vertex="1" parent="1">
          <mxGeometry x="-279.37" y="1930" width="90" height="100" as="geometry" />
        </mxCell>
        <mxCell id="4q0Dz2PpcYZMVycwDo13-114" style="rounded=0;orthogonalLoop=1;jettySize=auto;html=1;endArrow=none;endFill=0;fontSize=20;" edge="1" parent="1" source="4q0Dz2PpcYZMVycwDo13-103" target="4q0Dz2PpcYZMVycwDo13-106">
          <mxGeometry relative="1" as="geometry" />
        </mxCell>
        <mxCell id="4q0Dz2PpcYZMVycwDo13-115" style="rounded=0;orthogonalLoop=1;jettySize=auto;html=1;endArrow=none;endFill=0;fontSize=20;" edge="1" parent="1" source="4q0Dz2PpcYZMVycwDo13-103" target="4q0Dz2PpcYZMVycwDo13-104">
          <mxGeometry relative="1" as="geometry" />
        </mxCell>
        <mxCell id="4q0Dz2PpcYZMVycwDo13-117" style="rounded=0;orthogonalLoop=1;jettySize=auto;html=1;endArrow=none;endFill=0;fontSize=20;" edge="1" parent="1" source="4q0Dz2PpcYZMVycwDo13-103" target="4q0Dz2PpcYZMVycwDo13-105">
          <mxGeometry relative="1" as="geometry" />
        </mxCell>
        <mxCell id="4q0Dz2PpcYZMVycwDo13-103" value="" style="fontColor=#0066CC;verticalAlign=top;verticalLabelPosition=bottom;labelPosition=center;align=center;html=1;outlineConnect=0;fillColor=#CCCCCC;strokeColor=#6881B3;gradientColor=none;gradientDirection=north;strokeWidth=2;shape=mxgraph.networks.firewall;fontSize=20;" vertex="1" parent="1">
          <mxGeometry x="-115.5" y="1730" width="100" height="100" as="geometry" />
        </mxCell>
        <mxCell id="4q0Dz2PpcYZMVycwDo13-104" value="radius" style="fontColor=#0066CC;verticalAlign=top;verticalLabelPosition=bottom;labelPosition=center;align=center;html=1;outlineConnect=0;fillColor=#CCCCCC;strokeColor=#6881B3;gradientColor=none;gradientDirection=north;strokeWidth=2;shape=mxgraph.networks.server;fontSize=20;" vertex="1" parent="1">
          <mxGeometry x="-117.75" y="1930" width="90" height="100" as="geometry" />
        </mxCell>
        <mxCell id="4q0Dz2PpcYZMVycwDo13-105" value="directory server" style="fontColor=#0066CC;verticalAlign=top;verticalLabelPosition=bottom;labelPosition=center;align=center;html=1;outlineConnect=0;fillColor=#CCCCCC;strokeColor=#6881B3;gradientColor=none;gradientDirection=north;strokeWidth=2;shape=mxgraph.networks.server;fontSize=20;" vertex="1" parent="1">
          <mxGeometry x="18.75" y="1930" width="90" height="100" as="geometry" />
        </mxCell>
        <mxCell id="4q0Dz2PpcYZMVycwDo13-106" value="client" style="fontColor=#0066CC;verticalAlign=top;verticalLabelPosition=bottom;labelPosition=center;align=center;html=1;outlineConnect=0;fillColor=#CCCCCC;strokeColor=#6881B3;gradientColor=none;gradientDirection=north;strokeWidth=2;shape=mxgraph.networks.pc;fontSize=20;" vertex="1" parent="1">
          <mxGeometry x="-98.75" y="1600" width="100" height="70" as="geometry" />
        </mxCell>
        <mxCell id="4q0Dz2PpcYZMVycwDo13-119" value="B3" style="rounded=0;whiteSpace=wrap;html=1;fontSize=20;" vertex="1" parent="1">
          <mxGeometry x="44.75" y="1540" width="120" height="60" as="geometry" />
        </mxCell>
        <mxCell id="4q0Dz2PpcYZMVycwDo13-120" value="" style="fontColor=#0066CC;verticalAlign=top;verticalLabelPosition=bottom;labelPosition=center;align=center;html=1;outlineConnect=0;fillColor=#CCCCCC;strokeColor=#6881B3;gradientColor=none;gradientDirection=north;strokeWidth=2;shape=mxgraph.networks.security_camera;fontSize=20;" vertex="1" parent="1">
          <mxGeometry x="-805.25" y="2220" width="100" height="75" as="geometry" />
        </mxCell>
        <mxCell id="4q0Dz2PpcYZMVycwDo13-121" value="" style="fontColor=#0066CC;verticalAlign=top;verticalLabelPosition=bottom;labelPosition=center;align=center;html=1;outlineConnect=0;fillColor=#CCCCCC;strokeColor=#6881B3;gradientColor=none;gradientDirection=north;strokeWidth=2;shape=mxgraph.networks.security_camera;fontSize=20;" vertex="1" parent="1">
          <mxGeometry x="-805.25" y="2600" width="100" height="75" as="geometry" />
        </mxCell>
        <mxCell id="4q0Dz2PpcYZMVycwDo13-122" value="" style="fontColor=#0066CC;verticalAlign=top;verticalLabelPosition=bottom;labelPosition=center;align=center;html=1;outlineConnect=0;fillColor=#CCCCCC;strokeColor=#6881B3;gradientColor=none;gradientDirection=north;strokeWidth=2;shape=mxgraph.networks.security_camera;fontSize=20;" vertex="1" parent="1">
          <mxGeometry x="-805.25" y="2450" width="100" height="75" as="geometry" />
        </mxCell>
        <mxCell id="4q0Dz2PpcYZMVycwDo13-123" value="" style="fontColor=#0066CC;verticalAlign=top;verticalLabelPosition=bottom;labelPosition=center;align=center;html=1;outlineConnect=0;fillColor=#CCCCCC;strokeColor=#6881B3;gradientColor=none;gradientDirection=north;strokeWidth=2;shape=mxgraph.networks.security_camera;fontSize=20;" vertex="1" parent="1">
          <mxGeometry x="-805.25" y="2330" width="100" height="75" as="geometry" />
        </mxCell>
        <mxCell id="4q0Dz2PpcYZMVycwDo13-136" style="rounded=0;orthogonalLoop=1;jettySize=auto;html=1;endArrow=none;endFill=0;fontSize=20;" edge="1" parent="1" source="4q0Dz2PpcYZMVycwDo13-124" target="4q0Dz2PpcYZMVycwDo13-120">
          <mxGeometry relative="1" as="geometry" />
        </mxCell>
        <mxCell id="4q0Dz2PpcYZMVycwDo13-137" style="rounded=0;orthogonalLoop=1;jettySize=auto;html=1;endArrow=none;endFill=0;fontSize=20;" edge="1" parent="1" source="4q0Dz2PpcYZMVycwDo13-124" target="4q0Dz2PpcYZMVycwDo13-123">
          <mxGeometry relative="1" as="geometry" />
        </mxCell>
        <mxCell id="4q0Dz2PpcYZMVycwDo13-138" style="rounded=0;orthogonalLoop=1;jettySize=auto;html=1;endArrow=none;endFill=0;fontSize=20;" edge="1" parent="1" source="4q0Dz2PpcYZMVycwDo13-124" target="4q0Dz2PpcYZMVycwDo13-122">
          <mxGeometry relative="1" as="geometry" />
        </mxCell>
        <mxCell id="4q0Dz2PpcYZMVycwDo13-139" style="rounded=0;orthogonalLoop=1;jettySize=auto;html=1;endArrow=none;endFill=0;fontSize=20;" edge="1" parent="1" source="4q0Dz2PpcYZMVycwDo13-124" target="4q0Dz2PpcYZMVycwDo13-121">
          <mxGeometry relative="1" as="geometry" />
        </mxCell>
        <mxCell id="4q0Dz2PpcYZMVycwDo13-140" style="rounded=0;orthogonalLoop=1;jettySize=auto;html=1;endArrow=none;endFill=0;fontSize=20;" edge="1" parent="1" source="4q0Dz2PpcYZMVycwDo13-124" target="4q0Dz2PpcYZMVycwDo13-134">
          <mxGeometry relative="1" as="geometry" />
        </mxCell>
        <mxCell id="4q0Dz2PpcYZMVycwDo13-141" style="rounded=0;orthogonalLoop=1;jettySize=auto;html=1;endArrow=none;endFill=0;fontSize=20;" edge="1" parent="1" source="4q0Dz2PpcYZMVycwDo13-124" target="4q0Dz2PpcYZMVycwDo13-127">
          <mxGeometry relative="1" as="geometry" />
        </mxCell>
        <mxCell id="4q0Dz2PpcYZMVycwDo13-124" value="" style="fontColor=#0066CC;verticalAlign=top;verticalLabelPosition=bottom;labelPosition=center;align=center;html=1;outlineConnect=0;fillColor=#CCCCCC;strokeColor=#6881B3;gradientColor=none;gradientDirection=north;strokeWidth=2;shape=mxgraph.networks.video_projector;fontSize=20;" vertex="1" parent="1">
          <mxGeometry x="-622.75" y="2450" width="100" height="35" as="geometry" />
        </mxCell>
        <mxCell id="4q0Dz2PpcYZMVycwDo13-142" style="rounded=0;orthogonalLoop=1;jettySize=auto;html=1;endArrow=none;endFill=0;fontSize=20;" edge="1" parent="1" source="4q0Dz2PpcYZMVycwDo13-127" target="4q0Dz2PpcYZMVycwDo13-128">
          <mxGeometry relative="1" as="geometry" />
        </mxCell>
        <mxCell id="4q0Dz2PpcYZMVycwDo13-144" value="&lt;font style=&quot;font-size: 20px;&quot;&gt;noi bo lan&lt;/font&gt;" style="rounded=0;orthogonalLoop=1;jettySize=auto;html=1;endArrow=none;endFill=0;fontSize=20;" edge="1" parent="1" source="4q0Dz2PpcYZMVycwDo13-127" target="4q0Dz2PpcYZMVycwDo13-133">
          <mxGeometry relative="1" as="geometry" />
        </mxCell>
        <mxCell id="4q0Dz2PpcYZMVycwDo13-127" value="" style="fontColor=#0066CC;verticalAlign=top;verticalLabelPosition=bottom;labelPosition=center;align=center;html=1;outlineConnect=0;fillColor=#CCCCCC;strokeColor=#6881B3;gradientColor=none;gradientDirection=north;strokeWidth=2;shape=mxgraph.networks.switch;fontSize=20;" vertex="1" parent="1">
          <mxGeometry x="-388.25" y="2453" width="100" height="30" as="geometry" />
        </mxCell>
        <mxCell id="4q0Dz2PpcYZMVycwDo13-128" value="hub/switch" style="fontColor=#0066CC;verticalAlign=top;verticalLabelPosition=bottom;labelPosition=center;align=center;html=1;outlineConnect=0;fillColor=#CCCCCC;strokeColor=#6881B3;gradientColor=none;gradientDirection=north;strokeWidth=2;shape=mxgraph.networks.router;fontSize=20;" vertex="1" parent="1">
          <mxGeometry x="-388.25" y="2340" width="100" height="30" as="geometry" />
        </mxCell>
        <mxCell id="4q0Dz2PpcYZMVycwDo13-143" style="rounded=0;orthogonalLoop=1;jettySize=auto;html=1;endArrow=none;endFill=0;fontSize=20;" edge="1" parent="1" source="4q0Dz2PpcYZMVycwDo13-129" target="4q0Dz2PpcYZMVycwDo13-128">
          <mxGeometry relative="1" as="geometry" />
        </mxCell>
        <mxCell id="4q0Dz2PpcYZMVycwDo13-129" value="" style="html=1;outlineConnect=0;fillColor=#CCCCCC;strokeColor=#6881B3;gradientColor=none;gradientDirection=north;strokeWidth=2;shape=mxgraph.networks.cloud;fontColor=#ffffff;fontSize=20;" vertex="1" parent="1">
          <mxGeometry x="-395.25" y="2180" width="120" height="60" as="geometry" />
        </mxCell>
        <mxCell id="4q0Dz2PpcYZMVycwDo13-130" value="3g/4g/wifi" style="html=1;outlineConnect=0;fillColor=#CCCCCC;strokeColor=#6881B3;gradientColor=none;gradientDirection=north;strokeWidth=2;shape=mxgraph.networks.comm_link_edge;html=1;rounded=0;fontSize=20;" edge="1" parent="1" source="4q0Dz2PpcYZMVycwDo13-129">
          <mxGeometry width="100" height="100" relative="1" as="geometry">
            <mxPoint x="-155.25" y="2290" as="sourcePoint" />
            <mxPoint x="-65.25" y="2270" as="targetPoint" />
          </mxGeometry>
        </mxCell>
        <mxCell id="4q0Dz2PpcYZMVycwDo13-131" value="" style="fontColor=#0066CC;verticalAlign=top;verticalLabelPosition=bottom;labelPosition=center;align=center;html=1;outlineConnect=0;fillColor=#CCCCCC;strokeColor=#6881B3;gradientColor=none;gradientDirection=north;strokeWidth=2;shape=mxgraph.networks.mobile;fontSize=20;" vertex="1" parent="1">
          <mxGeometry x="-45.25" y="2180" width="50" height="100" as="geometry" />
        </mxCell>
        <mxCell id="4q0Dz2PpcYZMVycwDo13-132" value="" style="fontColor=#0066CC;verticalAlign=top;verticalLabelPosition=bottom;labelPosition=center;align=center;html=1;outlineConnect=0;fillColor=#CCCCCC;strokeColor=#6881B3;gradientColor=none;gradientDirection=north;strokeWidth=2;shape=mxgraph.networks.laptop;fontSize=20;" vertex="1" parent="1">
          <mxGeometry x="-68.75" y="2310" width="100" height="55" as="geometry" />
        </mxCell>
        <mxCell id="4q0Dz2PpcYZMVycwDo13-133" value="pc" style="fontColor=#0066CC;verticalAlign=top;verticalLabelPosition=bottom;labelPosition=center;align=center;html=1;outlineConnect=0;fillColor=#CCCCCC;strokeColor=#6881B3;gradientColor=none;gradientDirection=north;strokeWidth=2;shape=mxgraph.networks.pc;fontSize=20;" vertex="1" parent="1">
          <mxGeometry x="-390.25" y="2580" width="100" height="70" as="geometry" />
        </mxCell>
        <mxCell id="4q0Dz2PpcYZMVycwDo13-134" value="tv LCD" style="fontColor=#0066CC;verticalAlign=top;verticalLabelPosition=bottom;labelPosition=center;align=center;html=1;outlineConnect=0;fillColor=#CCCCCC;strokeColor=#6881B3;gradientColor=none;gradientDirection=north;strokeWidth=2;shape=mxgraph.networks.tablet;fontSize=20;" vertex="1" parent="1">
          <mxGeometry x="-622.75" y="2602.5" width="100" height="70" as="geometry" />
        </mxCell>
        <mxCell id="4q0Dz2PpcYZMVycwDo13-146" value="B4" style="rounded=0;whiteSpace=wrap;html=1;fontSize=20;" vertex="1" parent="1">
          <mxGeometry x="-35.25" y="2650" width="120" height="60" as="geometry" />
        </mxCell>
        <mxCell id="4q0Dz2PpcYZMVycwDo13-147" value="tablet" style="fontColor=#0066CC;verticalAlign=top;verticalLabelPosition=bottom;labelPosition=center;align=center;html=1;outlineConnect=0;fillColor=#CCCCCC;strokeColor=#6881B3;gradientColor=none;gradientDirection=north;strokeWidth=2;shape=mxgraph.networks.tablet;fontSize=20;" vertex="1" parent="1">
          <mxGeometry x="34" y="410" width="100" height="70" as="geometry" />
        </mxCell>
        <mxCell id="4q0Dz2PpcYZMVycwDo13-150" value="firewall va router" style="text;html=1;strokeColor=none;fillColor=none;align=center;verticalAlign=middle;whiteSpace=wrap;rounded=0;fontSize=20;" vertex="1" parent="1">
          <mxGeometry x="-435.25" y="810" width="170" height="30" as="geometry" />
        </mxCell>
        <mxCell id="4q0Dz2PpcYZMVycwDo13-151" value="firewall va router" style="text;html=1;strokeColor=none;fillColor=none;align=center;verticalAlign=middle;whiteSpace=wrap;rounded=0;fontSize=20;" vertex="1" parent="1">
          <mxGeometry x="93" y="810" width="166" height="30" as="geometry" />
        </mxCell>
        <mxCell id="4q0Dz2PpcYZMVycwDo13-152" value="firewall va server" style="text;html=1;strokeColor=none;fillColor=none;align=center;verticalAlign=middle;whiteSpace=wrap;rounded=0;fontSize=20;" vertex="1" parent="1">
          <mxGeometry x="-161.25" y="1067.5" width="200" height="30" as="geometry" />
        </mxCell>
        <mxCell id="4q0Dz2PpcYZMVycwDo13-163" value="" style="html=1;outlineConnect=0;fillColor=#CCCCCC;strokeColor=#6881B3;gradientColor=none;gradientDirection=north;strokeWidth=2;shape=mxgraph.networks.bus;gradientColor=none;gradientDirection=north;fontColor=#ffffff;perimeter=backbonePerimeter;backboneSize=20;rotation=-90;fontSize=26;" vertex="1" parent="1">
          <mxGeometry x="-890" y="3380" width="982.5" height="20" as="geometry" />
        </mxCell>
        <mxCell id="4q0Dz2PpcYZMVycwDo13-164" value="" style="fontColor=#0066CC;verticalAlign=top;verticalLabelPosition=bottom;labelPosition=center;align=center;html=1;outlineConnect=0;fillColor=#CCCCCC;strokeColor=#6881B3;gradientColor=none;gradientDirection=north;strokeWidth=2;shape=mxgraph.networks.pc;fontSize=26;" vertex="1" parent="1">
          <mxGeometry x="-791" y="2870" width="100" height="70" as="geometry" />
        </mxCell>
        <mxCell id="4q0Dz2PpcYZMVycwDo13-166" value="" style="fontColor=#0066CC;verticalAlign=top;verticalLabelPosition=bottom;labelPosition=center;align=center;html=1;outlineConnect=0;fillColor=#CCCCCC;strokeColor=#6881B3;gradientColor=none;gradientDirection=north;strokeWidth=2;shape=mxgraph.networks.printer;fontSize=26;" vertex="1" parent="1">
          <mxGeometry x="-780" y="2960" width="100" height="100" as="geometry" />
        </mxCell>
        <mxCell id="4q0Dz2PpcYZMVycwDo13-167" value="" style="fontColor=#0066CC;verticalAlign=top;verticalLabelPosition=bottom;labelPosition=center;align=center;html=1;outlineConnect=0;fillColor=#CCCCCC;strokeColor=#6881B3;gradientColor=none;gradientDirection=north;strokeWidth=2;shape=mxgraph.networks.pc;fontSize=26;" vertex="1" parent="1">
          <mxGeometry x="-781" y="3140" width="100" height="70" as="geometry" />
        </mxCell>
        <mxCell id="4q0Dz2PpcYZMVycwDo13-168" value="" style="fontColor=#0066CC;verticalAlign=top;verticalLabelPosition=bottom;labelPosition=center;align=center;html=1;outlineConnect=0;fillColor=#CCCCCC;strokeColor=#6881B3;gradientColor=none;gradientDirection=north;strokeWidth=2;shape=mxgraph.networks.printer;fontSize=26;" vertex="1" parent="1">
          <mxGeometry x="-770" y="3230" width="100" height="100" as="geometry" />
        </mxCell>
        <mxCell id="4q0Dz2PpcYZMVycwDo13-169" value="" style="fontColor=#0066CC;verticalAlign=top;verticalLabelPosition=bottom;labelPosition=center;align=center;html=1;outlineConnect=0;fillColor=#CCCCCC;strokeColor=#6881B3;gradientColor=none;gradientDirection=north;strokeWidth=2;shape=mxgraph.networks.pc;fontSize=26;" vertex="1" parent="1">
          <mxGeometry x="-785.5" y="3400" width="100" height="70" as="geometry" />
        </mxCell>
        <mxCell id="4q0Dz2PpcYZMVycwDo13-170" value="" style="fontColor=#0066CC;verticalAlign=top;verticalLabelPosition=bottom;labelPosition=center;align=center;html=1;outlineConnect=0;fillColor=#CCCCCC;strokeColor=#6881B3;gradientColor=none;gradientDirection=north;strokeWidth=2;shape=mxgraph.networks.printer;fontSize=26;" vertex="1" parent="1">
          <mxGeometry x="-774.5" y="3490" width="100" height="100" as="geometry" />
        </mxCell>
        <mxCell id="4q0Dz2PpcYZMVycwDo13-171" value="" style="fontColor=#0066CC;verticalAlign=top;verticalLabelPosition=bottom;labelPosition=center;align=center;html=1;outlineConnect=0;fillColor=#CCCCCC;strokeColor=#6881B3;gradientColor=none;gradientDirection=north;strokeWidth=2;shape=mxgraph.networks.pc;fontSize=26;" vertex="1" parent="1">
          <mxGeometry x="-781" y="3670" width="100" height="70" as="geometry" />
        </mxCell>
        <mxCell id="4q0Dz2PpcYZMVycwDo13-172" value="" style="fontColor=#0066CC;verticalAlign=top;verticalLabelPosition=bottom;labelPosition=center;align=center;html=1;outlineConnect=0;fillColor=#CCCCCC;strokeColor=#6881B3;gradientColor=none;gradientDirection=north;strokeWidth=2;shape=mxgraph.networks.printer;fontSize=26;" vertex="1" parent="1">
          <mxGeometry x="-770" y="3760" width="100" height="100" as="geometry" />
        </mxCell>
        <mxCell id="4q0Dz2PpcYZMVycwDo13-183" style="rounded=0;orthogonalLoop=1;jettySize=auto;html=1;endArrow=none;endFill=0;fontSize=26;" edge="1" parent="1" source="4q0Dz2PpcYZMVycwDo13-173" target="4q0Dz2PpcYZMVycwDo13-171">
          <mxGeometry relative="1" as="geometry" />
        </mxCell>
        <mxCell id="4q0Dz2PpcYZMVycwDo13-184" style="rounded=0;orthogonalLoop=1;jettySize=auto;html=1;endArrow=none;endFill=0;fontSize=26;" edge="1" parent="1" source="4q0Dz2PpcYZMVycwDo13-173" target="4q0Dz2PpcYZMVycwDo13-172">
          <mxGeometry relative="1" as="geometry" />
        </mxCell>
        <mxCell id="4q0Dz2PpcYZMVycwDo13-173" value="" style="fontColor=#0066CC;verticalAlign=top;verticalLabelPosition=bottom;labelPosition=center;align=center;html=1;outlineConnect=0;fillColor=#CCCCCC;strokeColor=#6881B3;gradientColor=none;gradientDirection=north;strokeWidth=2;shape=mxgraph.networks.switch;fontSize=26;" vertex="1" parent="1">
          <mxGeometry x="-640" y="3760" width="100" height="30" as="geometry" />
        </mxCell>
        <mxCell id="4q0Dz2PpcYZMVycwDo13-181" style="rounded=0;orthogonalLoop=1;jettySize=auto;html=1;endArrow=none;endFill=0;fontSize=26;" edge="1" parent="1" source="4q0Dz2PpcYZMVycwDo13-174" target="4q0Dz2PpcYZMVycwDo13-169">
          <mxGeometry relative="1" as="geometry" />
        </mxCell>
        <mxCell id="4q0Dz2PpcYZMVycwDo13-182" style="rounded=0;orthogonalLoop=1;jettySize=auto;html=1;endArrow=none;endFill=0;fontSize=26;" edge="1" parent="1" source="4q0Dz2PpcYZMVycwDo13-174" target="4q0Dz2PpcYZMVycwDo13-170">
          <mxGeometry relative="1" as="geometry" />
        </mxCell>
        <mxCell id="4q0Dz2PpcYZMVycwDo13-174" value="" style="fontColor=#0066CC;verticalAlign=top;verticalLabelPosition=bottom;labelPosition=center;align=center;html=1;outlineConnect=0;fillColor=#CCCCCC;strokeColor=#6881B3;gradientColor=none;gradientDirection=north;strokeWidth=2;shape=mxgraph.networks.switch;fontSize=26;" vertex="1" parent="1">
          <mxGeometry x="-640" y="3490" width="100" height="30" as="geometry" />
        </mxCell>
        <mxCell id="4q0Dz2PpcYZMVycwDo13-179" style="rounded=0;orthogonalLoop=1;jettySize=auto;html=1;endArrow=none;endFill=0;fontSize=26;" edge="1" parent="1" source="4q0Dz2PpcYZMVycwDo13-175" target="4q0Dz2PpcYZMVycwDo13-167">
          <mxGeometry relative="1" as="geometry" />
        </mxCell>
        <mxCell id="4q0Dz2PpcYZMVycwDo13-180" style="rounded=0;orthogonalLoop=1;jettySize=auto;html=1;endArrow=none;endFill=0;fontSize=26;" edge="1" parent="1" source="4q0Dz2PpcYZMVycwDo13-175" target="4q0Dz2PpcYZMVycwDo13-168">
          <mxGeometry relative="1" as="geometry" />
        </mxCell>
        <mxCell id="4q0Dz2PpcYZMVycwDo13-175" value="" style="fontColor=#0066CC;verticalAlign=top;verticalLabelPosition=bottom;labelPosition=center;align=center;html=1;outlineConnect=0;fillColor=#CCCCCC;strokeColor=#6881B3;gradientColor=none;gradientDirection=north;strokeWidth=2;shape=mxgraph.networks.switch;fontSize=26;" vertex="1" parent="1">
          <mxGeometry x="-630" y="3210" width="100" height="30" as="geometry" />
        </mxCell>
        <mxCell id="4q0Dz2PpcYZMVycwDo13-177" style="rounded=0;orthogonalLoop=1;jettySize=auto;html=1;endArrow=none;endFill=0;fontSize=26;" edge="1" parent="1" source="4q0Dz2PpcYZMVycwDo13-176" target="4q0Dz2PpcYZMVycwDo13-164">
          <mxGeometry relative="1" as="geometry" />
        </mxCell>
        <mxCell id="4q0Dz2PpcYZMVycwDo13-178" style="rounded=0;orthogonalLoop=1;jettySize=auto;html=1;endArrow=none;endFill=0;fontSize=26;" edge="1" parent="1" source="4q0Dz2PpcYZMVycwDo13-176" target="4q0Dz2PpcYZMVycwDo13-166">
          <mxGeometry relative="1" as="geometry" />
        </mxCell>
        <mxCell id="4q0Dz2PpcYZMVycwDo13-176" value="" style="fontColor=#0066CC;verticalAlign=top;verticalLabelPosition=bottom;labelPosition=center;align=center;html=1;outlineConnect=0;fillColor=#CCCCCC;strokeColor=#6881B3;gradientColor=none;gradientDirection=north;strokeWidth=2;shape=mxgraph.networks.switch;fontSize=26;" vertex="1" parent="1">
          <mxGeometry x="-630" y="2950" width="100" height="30" as="geometry" />
        </mxCell>
        <mxCell id="4q0Dz2PpcYZMVycwDo13-192" style="rounded=0;orthogonalLoop=1;jettySize=auto;html=1;endArrow=none;endFill=0;fontSize=26;" edge="1" parent="1" source="4q0Dz2PpcYZMVycwDo13-185" target="4q0Dz2PpcYZMVycwDo13-189">
          <mxGeometry relative="1" as="geometry" />
        </mxCell>
        <mxCell id="4q0Dz2PpcYZMVycwDo13-193" style="rounded=0;orthogonalLoop=1;jettySize=auto;html=1;endArrow=none;endFill=0;fontSize=26;" edge="1" parent="1" source="4q0Dz2PpcYZMVycwDo13-185" target="4q0Dz2PpcYZMVycwDo13-190">
          <mxGeometry relative="1" as="geometry" />
        </mxCell>
        <mxCell id="4q0Dz2PpcYZMVycwDo13-194" style="rounded=0;orthogonalLoop=1;jettySize=auto;html=1;endArrow=none;endFill=0;fontSize=26;" edge="1" parent="1" source="4q0Dz2PpcYZMVycwDo13-185" target="4q0Dz2PpcYZMVycwDo13-191">
          <mxGeometry relative="1" as="geometry" />
        </mxCell>
        <mxCell id="4q0Dz2PpcYZMVycwDo13-195" style="rounded=0;orthogonalLoop=1;jettySize=auto;html=1;endArrow=none;endFill=0;fontSize=26;" edge="1" parent="1" source="4q0Dz2PpcYZMVycwDo13-185" target="4q0Dz2PpcYZMVycwDo13-188">
          <mxGeometry relative="1" as="geometry" />
        </mxCell>
        <mxCell id="4q0Dz2PpcYZMVycwDo13-210" style="rounded=0;orthogonalLoop=1;jettySize=auto;html=1;endArrow=none;endFill=0;fontSize=26;" edge="1" parent="1" source="4q0Dz2PpcYZMVycwDo13-185" target="4q0Dz2PpcYZMVycwDo13-163">
          <mxGeometry relative="1" as="geometry" />
        </mxCell>
        <mxCell id="4q0Dz2PpcYZMVycwDo13-185" value="" style="fontColor=#0066CC;verticalAlign=top;verticalLabelPosition=bottom;labelPosition=center;align=center;html=1;outlineConnect=0;fillColor=#CCCCCC;strokeColor=#6881B3;gradientColor=none;gradientDirection=north;strokeWidth=2;shape=mxgraph.networks.switch;fontSize=26;" vertex="1" parent="1">
          <mxGeometry x="-139" y="3370" width="100" height="30" as="geometry" />
        </mxCell>
        <mxCell id="4q0Dz2PpcYZMVycwDo13-200" style="rounded=0;orthogonalLoop=1;jettySize=auto;html=1;endArrow=none;endFill=0;fontSize=26;" edge="1" parent="1" source="4q0Dz2PpcYZMVycwDo13-186" target="4q0Dz2PpcYZMVycwDo13-185">
          <mxGeometry relative="1" as="geometry" />
        </mxCell>
        <mxCell id="4q0Dz2PpcYZMVycwDo13-186" value="access point" style="fontColor=#0066CC;verticalAlign=top;verticalLabelPosition=bottom;labelPosition=center;align=center;html=1;outlineConnect=0;fillColor=#CCCCCC;strokeColor=#6881B3;gradientColor=none;gradientDirection=north;strokeWidth=2;shape=mxgraph.networks.wireless_hub;fontSize=26;" vertex="1" parent="1">
          <mxGeometry x="-143.5" y="3120" width="100" height="85" as="geometry" />
        </mxCell>
        <mxCell id="4q0Dz2PpcYZMVycwDo13-198" style="rounded=0;orthogonalLoop=1;jettySize=auto;html=1;endArrow=none;endFill=0;fontSize=26;" edge="1" parent="1" source="4q0Dz2PpcYZMVycwDo13-188" target="4q0Dz2PpcYZMVycwDo13-196">
          <mxGeometry relative="1" as="geometry" />
        </mxCell>
        <mxCell id="4q0Dz2PpcYZMVycwDo13-199" style="rounded=0;orthogonalLoop=1;jettySize=auto;html=1;endArrow=none;endFill=0;fontSize=26;" edge="1" parent="1" source="4q0Dz2PpcYZMVycwDo13-188" target="4q0Dz2PpcYZMVycwDo13-197">
          <mxGeometry relative="1" as="geometry" />
        </mxCell>
        <mxCell id="4q0Dz2PpcYZMVycwDo13-188" value="" style="fontColor=#0066CC;verticalAlign=top;verticalLabelPosition=bottom;labelPosition=center;align=center;html=1;outlineConnect=0;fillColor=#CCCCCC;strokeColor=#6881B3;gradientColor=none;gradientDirection=north;strokeWidth=2;shape=mxgraph.networks.firewall;fontSize=26;" vertex="1" parent="1">
          <mxGeometry x="133" y="3335" width="100" height="100" as="geometry" />
        </mxCell>
        <mxCell id="4q0Dz2PpcYZMVycwDo13-189" value="file srv" style="fontColor=#0066CC;verticalAlign=top;verticalLabelPosition=bottom;labelPosition=center;align=center;html=1;outlineConnect=0;fillColor=#CCCCCC;strokeColor=#6881B3;gradientColor=none;gradientDirection=north;strokeWidth=2;shape=mxgraph.networks.server;fontSize=26;" vertex="1" parent="1">
          <mxGeometry x="-290" y="3550" width="90" height="100" as="geometry" />
        </mxCell>
        <mxCell id="4q0Dz2PpcYZMVycwDo13-190" value="applicaiton srv" style="fontColor=#0066CC;verticalAlign=top;verticalLabelPosition=bottom;labelPosition=center;align=center;html=1;outlineConnect=0;fillColor=#CCCCCC;strokeColor=#6881B3;gradientColor=none;gradientDirection=north;strokeWidth=2;shape=mxgraph.networks.server;fontSize=26;" vertex="1" parent="1">
          <mxGeometry x="-150" y="3550" width="90" height="100" as="geometry" />
        </mxCell>
        <mxCell id="4q0Dz2PpcYZMVycwDo13-191" value="database srv" style="fontColor=#0066CC;verticalAlign=top;verticalLabelPosition=bottom;labelPosition=center;align=center;html=1;outlineConnect=0;fillColor=#CCCCCC;strokeColor=#6881B3;gradientColor=none;gradientDirection=north;strokeWidth=2;shape=mxgraph.networks.server;fontSize=26;" vertex="1" parent="1">
          <mxGeometry x="-8" y="3550" width="90" height="100" as="geometry" />
        </mxCell>
        <mxCell id="4q0Dz2PpcYZMVycwDo13-196" value="router wan 1" style="fontColor=#0066CC;verticalAlign=top;verticalLabelPosition=bottom;labelPosition=center;align=center;html=1;outlineConnect=0;fillColor=#CCCCCC;strokeColor=#6881B3;gradientColor=none;gradientDirection=north;strokeWidth=2;shape=mxgraph.networks.router;fontSize=26;" vertex="1" parent="1">
          <mxGeometry x="322.5" y="3270" width="100" height="30" as="geometry" />
        </mxCell>
        <mxCell id="4q0Dz2PpcYZMVycwDo13-197" value="router wan2" style="fontColor=#0066CC;verticalAlign=top;verticalLabelPosition=bottom;labelPosition=center;align=center;html=1;outlineConnect=0;fillColor=#CCCCCC;strokeColor=#6881B3;gradientColor=none;gradientDirection=north;strokeWidth=2;shape=mxgraph.networks.router;fontSize=26;" vertex="1" parent="1">
          <mxGeometry x="330.25" y="3460" width="100" height="30" as="geometry" />
        </mxCell>
        <mxCell id="4q0Dz2PpcYZMVycwDo13-201" value="" style="html=1;outlineConnect=0;fillColor=#CCCCCC;strokeColor=#6881B3;gradientColor=none;gradientDirection=north;strokeWidth=2;shape=mxgraph.networks.cloud;fontColor=#ffffff;fontSize=26;" vertex="1" parent="1">
          <mxGeometry x="610" y="3350" width="156" height="80" as="geometry" />
        </mxCell>
        <mxCell id="4q0Dz2PpcYZMVycwDo13-202" value="fiber" style="html=1;outlineConnect=0;fillColor=#CCCCCC;strokeColor=#6881B3;gradientColor=none;gradientDirection=north;strokeWidth=2;shape=mxgraph.networks.comm_link_edge;html=1;rounded=0;fontSize=26;" edge="1" parent="1" source="4q0Dz2PpcYZMVycwDo13-196" target="4q0Dz2PpcYZMVycwDo13-201">
          <mxGeometry width="100" height="100" relative="1" as="geometry">
            <mxPoint x="490" y="3400" as="sourcePoint" />
            <mxPoint x="590" y="3300" as="targetPoint" />
          </mxGeometry>
        </mxCell>
        <mxCell id="4q0Dz2PpcYZMVycwDo13-205" value="fiber ftth" style="html=1;outlineConnect=0;fillColor=#CCCCCC;strokeColor=#6881B3;gradientColor=none;gradientDirection=north;strokeWidth=2;shape=mxgraph.networks.comm_link_edge;html=1;rounded=0;exitX=1;exitY=0.5;exitDx=0;exitDy=0;exitPerimeter=0;fontSize=26;" edge="1" parent="1" source="4q0Dz2PpcYZMVycwDo13-197" target="4q0Dz2PpcYZMVycwDo13-201">
          <mxGeometry width="100" height="100" relative="1" as="geometry">
            <mxPoint x="460" y="3580" as="sourcePoint" />
            <mxPoint x="560" y="3480" as="targetPoint" />
          </mxGeometry>
        </mxCell>
        <mxCell id="4q0Dz2PpcYZMVycwDo13-221" value="" style="endArrow=none;html=1;rounded=0;fontSize=26;" edge="1" parent="1" source="4q0Dz2PpcYZMVycwDo13-176" target="4q0Dz2PpcYZMVycwDo13-163">
          <mxGeometry width="50" height="50" relative="1" as="geometry">
            <mxPoint x="-470" y="3000" as="sourcePoint" />
            <mxPoint x="-420" y="2950" as="targetPoint" />
            <Array as="points">
              <mxPoint x="-450" y="2970" />
            </Array>
          </mxGeometry>
        </mxCell>
        <mxCell id="4q0Dz2PpcYZMVycwDo13-222" value="" style="endArrow=none;html=1;rounded=0;fontSize=26;" edge="1" parent="1" source="4q0Dz2PpcYZMVycwDo13-175">
          <mxGeometry width="50" height="50" relative="1" as="geometry">
            <mxPoint x="-488" y="3174.5" as="sourcePoint" />
            <mxPoint x="-410" y="3174.5" as="targetPoint" />
          </mxGeometry>
        </mxCell>
        <mxCell id="4q0Dz2PpcYZMVycwDo13-223" value="" style="endArrow=none;html=1;rounded=0;fontSize=26;" edge="1" parent="1" source="4q0Dz2PpcYZMVycwDo13-174">
          <mxGeometry width="50" height="50" relative="1" as="geometry">
            <mxPoint x="-479.25" y="3520" as="sourcePoint" />
            <mxPoint x="-410" y="3520" as="targetPoint" />
          </mxGeometry>
        </mxCell>
        <mxCell id="4q0Dz2PpcYZMVycwDo13-224" value="" style="endArrow=none;html=1;rounded=0;fontSize=26;" edge="1" parent="1" source="4q0Dz2PpcYZMVycwDo13-173">
          <mxGeometry width="50" height="50" relative="1" as="geometry">
            <mxPoint x="-482.5" y="3758.33" as="sourcePoint" />
            <mxPoint x="-410" y="3760" as="targetPoint" />
          </mxGeometry>
        </mxCell>
        <mxCell id="4q0Dz2PpcYZMVycwDo13-227" value="phong server" style="text;html=1;strokeColor=none;fillColor=none;align=center;verticalAlign=middle;whiteSpace=wrap;rounded=0;fontSize=26;" vertex="1" parent="1">
          <mxGeometry x="-190" y="2890" width="820" height="30" as="geometry" />
        </mxCell>
        <mxCell id="4q0Dz2PpcYZMVycwDo13-228" value="lau 1" style="text;html=1;strokeColor=none;fillColor=none;align=center;verticalAlign=middle;whiteSpace=wrap;rounded=0;fontSize=26;" vertex="1" parent="1">
          <mxGeometry x="-630" y="3570" width="60" height="30" as="geometry" />
        </mxCell>
        <mxCell id="4q0Dz2PpcYZMVycwDo13-229" value="lau 2" style="text;html=1;strokeColor=none;fillColor=none;align=center;verticalAlign=middle;whiteSpace=wrap;rounded=0;fontSize=26;" vertex="1" parent="1">
          <mxGeometry x="-630" y="3840" width="60" height="30" as="geometry" />
        </mxCell>
        <mxCell id="4q0Dz2PpcYZMVycwDo13-230" value="van phong" style="text;html=1;strokeColor=none;fillColor=none;align=center;verticalAlign=middle;whiteSpace=wrap;rounded=0;fontSize=26;" vertex="1" parent="1">
          <mxGeometry x="-650" y="3040" width="140" height="30" as="geometry" />
        </mxCell>
        <mxCell id="4q0Dz2PpcYZMVycwDo13-231" value="KHTC + GPMB + QLTV" style="text;html=1;strokeColor=none;fillColor=none;align=center;verticalAlign=middle;whiteSpace=wrap;rounded=0;fontSize=26;" vertex="1" parent="1">
          <mxGeometry x="-670" y="3300" width="202.5" height="30" as="geometry" />
        </mxCell>
        <mxCell id="4q0Dz2PpcYZMVycwDo13-234" value="B5&lt;font style=&quot;font-size: 26px;&quot;&gt;&lt;br style=&quot;font-size: 26px;&quot;&gt;&lt;/font&gt;" style="rounded=0;whiteSpace=wrap;html=1;fontSize=26;" vertex="1" parent="1">
          <mxGeometry x="710" y="2790" width="120" height="60" as="geometry" />
        </mxCell>
      </root>
    </mxGraphModel>
  </diagram>
</mxfile>
